<svg xmlns="http://www.w3.org/2000/svg" xml:space="preserve" width="648" height="646.667"><path d="M8.922 4845.77H4849.41V5.285H8.922Z" style="fill:none;stroke:#fff;stroke-width:2.16000009;stroke-linecap:butt;stroke-linejoin:miter;stroke-miterlimit:22.92560005;stroke-dasharray:none;stroke-opacity:1" transform="matrix(.13333 0 0 -.13333 0 646.667)"/><path d="M2177.18 1849.96c-10.37-2.62-11.08 21.8-3.45 29.3 29.88 29.29 51.15 76.33 91.35 87.89 84.58 24.34 161.11 25.45 247.74 9.91 17.63-3.17 50.07-17.32 69.38-15.08 21.84 2.54 52.42 5.61 79.28 0-49.12-6.7-55.07-15.77-77.13-17.03-38.43-2.19-66.59 16.37-103.84 6.69-68.44-17.77-125.58-53.48-191.88-72.76-35.4-10.3-75.52-19.84-111.45-28.92zM124.535 330.828 100.41 1505.27h179.238l68.938 2099.18 193.027-6.9-48.254-468.78-75.832 265.41-34.472-237.84-13.785 206.82-37.918-782.45 34.468-599.77 27.578 124.09 41.364-296.44 75.832 292.99 89.621-706.62 20.68 589.43 117.195-3.45 13.789-761.77 31.019-51.71 13.79-541.163c1.332-52.305-45.219-96.297-51.704-148.219-3.152-25.234 24.129-46.953 24.129-72.383v-74.867zm753.156 462.645 1.723 361.927c61.742-67.42 119.867-85.68 190.696-86.03 123.27-.6 232.82-49.32 241.89-256.936V445.332c-37.91 36.199-75.83 33.328-113.75-8.617 53.5 106.258 101.23 214.82 108.58 339.523-1.15 98.098-24.69 164.453-81 184.41-84.47 43.732-140.19 15.563-187.86-32.746-53.423-44.808-106.853-89.617-160.279-134.429ZM2687.41 1957.71c65.35-28.66 124.45-75.41 187.92-118.25 8.63-5.82 27.78 4.27 27.59 14.68-.51 27.67-16.05 54.7-37.93 71.64-41.26 31.94-143.46 49.06-177.58 31.93zm691.02-1626.882c-85.35 343.274-148.03 759.852-210.25 1239.932-74.43-190.73-18.47-415.93-144.77-623.897 26.87 124.097 39.8 260.847 6.89 417.077-181.22-218.08-232.89-487.202-261.97-765.217-22.05 165.773-43.38 331.629 27.58 506.697-67.79-18.38-137.7-38.93-207.68-44.79-123.68-10.36-245.19-12.62-367.96-3.47-43.07 3.22-99.96 29.3-113.75 62.05-19.07-125.753 39-280.315 37.92-420.526-147.36 315.616-295.09 627.526-527.38 696.276-34.31 10.16-77.95-43.93-72.39-79.28 47.88-303.85 115.55-670.582 358.48-872.071-92.49 23.559-139.47 102.407-220.6 127.539-53.82 16.668-118.62 18.536-168.9-6.894-58.07-29.367-87.32-96.516-130.99-144.774 3.45 70.09-3.14 141.403 10.35 210.266 8.7 44.418 9.19 81 55.15 124.086 12.64 36.77 43.01 61.867 37.91 110.305-5.37 51.058-50.55 89.047-136.15 106.855-71.48 121.258-138.2 153.358-232.67 141.318-164.816 1.08-204.141 113.71-203.367 261.97 1.152 201.07 2.301 402.14 3.449 603.21l-48.258 34.47c3.446 518.19 6.895 1036.38 10.34 1554.57-21.828 8.04-43.66 16.08-65.492 24.13-2.297 13.79-4.594 27.57-6.895 41.36-54-2.3-108-4.6-162.004-6.89 79.278 28.72 154.122 76.1 237.836 86.17 73.727 8.87 147.071-20.68 220.601-31.02 3.45 60.89-3.67 123.33 10.34 182.68 20.81 88.09 58.4 171.48 93.07 255.08 29.74 71.67 40.97 159.84 99.96 210.26 76.4 65.29 180.58 94.43 279.21 113.75 127.53 24.98 260.45 1.89 389.5 17.23 84.4 10.04 163.26 54.76 248.17 58.6 146.07 6.6 294.16-.1 437.77-27.58 123.13-23.55 242.11-69.63 355.03-124.09 114.85-55.38 229-118.32 324.01-203.36 51.39-46.01 68.66-119.67 103.41-179.24 29.59-50.72 48.26-86.06 48.26-144.77 0-74.09-43.71-136.33-48.26-210.27-9.64-156.78 33.87-312.36 48.26-468.78 2.84-30.91-1.48-62.42 3.44-93.07 5.49-34.12 25.57-65.46 27.58-99.96 6.08-104.38 17.33-211.19-3.45-313.67-14.59-72.01-73.24-128.02-99.96-196.47-38.98-99.86-78.05-201.18-96.51-306.78-10.7-61.21 20.03-124.75 10.34-186.13-4.77-30.23-45.58-45.87-51.7-75.83-19.1-93.33-48.91-187.38-89.63-296.44-13.37-35.83 27.72-79.66 62.05-96.52 163.45-80.25 347.49-111.5 513.59-186.13 393.29-176.71 564.56-448.001 841.05-679.044 53.74-44.91 99.29-98.812 148.94-148.219V330.828h-307.5c-125.01 225.508-306.67 417.289-492.91 609.141-87.13 89.761-7.16 85.201 58.6 62.041 46.92-16.518 95.93-66.631 156.84-101.682-23.85 27.438 13.49 77.707 44.81 77.555-162.36 182.767-429.93 317.057-766.95 417.077-59.95-13.76-47.23-35.6-24.12-58.6 117.76-80.14 241.85-138.16 368.82-186.13-111.94 34.66-215.62 80.29-324.02 113.75-64 3.28-51.27-23.77-27.57-55.15 290.33-191.27 465.51-451.541 482.57-766.943 5.28-97.625-210.12-68.567-265.41 12.062-82.46 120.258-168.74 258.301-292.99 355.035 21.82-47.101 43.65-96.504 65.49-148.218-43.69 26.922-79.3 74.066-113.75 124.089 44.82-189.746 202.71-373.902 379.16-454.027h-320.57zM1603.27 2453.17c-71.63 3.13-77.98-21.27-58.6-68.94 23.15-56.93 52.99-112.18 65.49-172.34 11.94-57.42 15.12-117.74 6.9-175.8-12.67-89.4-78.26-172.15-68.94-261.96 8.07-77.83 61.87-148.05 117.19-203.37 15.69-15.69 60.51 1.99 62.05 24.12 5.27 75.98-45.49 147.9-44.81 224.05.5 56.35 19.91 113.32 48.25 162.01 18.51 31.79 49.57 72.53 86.18 68.94 41.24-4.04 82.27-45.39 89.62-86.17 7.95-44.1-39.25-144.77-17.21-183.77 58.83-104.1 140.91-163.74 203.43-248.94 82.98-113.1 149.93-247.6 261.88-360.09 76.34-76.71 453.08-72.6 472.23 49.98 11.02 70.54 84.58 124.29 125.73 184.1 36.31 52.78 40.91 111.83 47.39 169.57 4.02 35.73 134.81 77.23 136.04 113.17 6.37 186.23-51.2 280.27-74.77 396.62 93.36-31.9 178.33-12.73 213.71 127.54 21.34 84.61 49.98 179.24 41.36 258.52-106.85-1.16-214.03-11.77-320.56-3.45-83.19 6.49-168.63 71.49-213.71 144.77-74.11 120.46-141.08 206.28-203.37 310.22-15.99 26.69-77.48 20.02-93.07-6.89-71.62-123.64-130.29-265.97-210.26-389.51-34.93-53.95-111.89-72.39-175.79-79.27-164.52-17.71-331.05-.33-496.36 6.89zm997.08-154.51c-35.97.29-29.89-8.78-118.96 11.22-21.59 4.85-33.8-9.2-55.17-3.45-10.4 2.8-28.98 18.36-34.48 27.62-2.37 3.99-2.84 12.99 1.72 13.81 29.43 5.28 64.35 18.52 89.65 2.59 30.57-19.24 64.11-42.75 117.24-43.15 2.87-.02 2.87-8.66 0-8.64zm44.82 9.5c-5.17-.71 7.05 11.31 11.64 13.81 30.49 16.59 64.79 24.4 103.87 17.26 4.91-.89 7.95-13.93 3.02-14.67-19.6-2.94-34.35-10.83-39.22-27.62-1.58-5.44-14.62-7.81-16.81-2.59-4.18 9.97-3.99 17.27-15.95 20.71-12.33 3.55-36.28-5.5-46.55-6.9zM1541.23 3518.27c-20.57 45.05-45.96 113.8-10.35 148.22 172.71 166.94 377.49 294.37 641.13 289.54 115.2-2.11 226.13-50.45 341.25-55.15 111.73-4.56 227.21 59.6 334.35 27.58 182.59-54.58 303.66-211.51 382.61-403.3 23.19-56.34-8.58-123.75 6.89-182.68 15.15-57.66 74.59-99.51 82.73-158.56 3.14-22.77-12.36-45.6-55.15-41.37-133.89 13.27-301.1 29.84-451.55 24.13-130.85-4.96-158.21-58.48-187.86-59.04-44.01-.82-83.24-1.76-129.26.45-54.91 2.64-73.43 67.9-197.36 72.82-250.79 9.97-489.42-15.82-702.28-48.7-26.34-4.06-22.98 55.82-10.34 79.29 23.12 42.94 113.9 51.7 106.85 99.96-12.35 84.58-116.18 129.04-151.66 206.81zm636.72-691.35c18.57 0 33.62-15.08 33.62-33.66 0-18.59-15.05-33.67-33.62-33.67-18.56 0-33.61 15.08-33.61 33.67 0 18.58 15.05 33.66 33.61 33.66zm-45.66 331c37.59 0 68.08-8.07 68.08-18.02s-30.49-18.02-68.08-18.02-68.08 8.07-68.08 18.02 30.49 18.02 68.08 18.02zm666.2-346.27c21.42 0 38.78-15.44 38.78-34.47s-17.36-34.47-38.78-34.47c-21.41 0-38.78 15.44-38.78 34.47s17.37 34.47 38.78 34.47zm-3.76 157.69c6.43 0 11.64-32.28 11.64-72.07 0-39.8-5.21-72.08-11.64-72.08-6.42 0-11.63 32.28-11.63 72.08 0 39.79 5.21 72.07 11.63 72.07zm520.24-73.37-166.36-40.88c-10.63 26.48-36.54 45.2-66.82 45.2-39.75 0-71.98-32.24-71.98-71.98 0-39.75 32.23-71.98 71.98-71.98 10.75 0 20.96 2.36 30.12 6.59l76.34-98.28-59.96 108.74c15.59 13.2 25.48 32.91 25.48 54.93 0 3.64-.28 7.2-.8 10.69zM620.895 3563.08h99.96L693.281 2022.3h-37.918l3.45 89.63-52.575 151.67zm560.125-1194.36c9.08 6.39 26-2.16 31.02-12.06 8.59-16.94-.07-38.21 3.45-56.88 8.01-42.44 9.68-88.26 31.02-125.81 11.98-21.07 37.88-39.67 62.05-37.92 18.45 1.34 35.59 26.54 32.74 44.81-5.28 33.88-39.82 56.43-53.42 87.9-5.25 12.14-7 27.51-1.73 39.64 2.52 5.8 15.74 5.43 18.96 0 26.08-44.01 47.85-90.99 63.77-139.6 5.72-17.48-3.07-37.03 0-55.15 2.76-16.31 15.57-30.08 17.23-46.54 3.02-29.74 2.42-60.3-3.45-89.62-2.97-14.88-7.23-39.19-22.4-39.63-51.81-1.54-114.47-1.66-151.66 34.46-34.51 33.52-16.31 95-29.3 141.33-4.37 15.58-17.51 27.65-22.41 43.08-14.16 44.63-39.76 89.64-34.47 136.16 3.62 31.74 32.48 57.44 58.6 75.83" style="fill:#231f20;fill-opacity:1;fill-rule:evenodd;stroke:none" transform="matrix(.13333 0 0 -.13333 0 646.667)"/></svg>